# xmcd
#
# Track frame offsets: 
#        150
#        21713
#        38146
#        52602
#        67130
#        85492
#        105514
#        119663
#        133974
#        149746
#        161461
#        180279
#        197308
#        212341
#        221671
#
# Disc length: 3128 seconds
#
# Revision: 0
# Processed by: cddbd v1.5.2PL0 Copyright (c) Steve Scherf et al.
# Submitted via: ExactAudioCopy v0.95b4
#
DISCID=dd0c360f
DTITLE=Харитонов Николай - Эдемские наигрыши
DYEAR=2007
DGENRE=Acoustic
TTITLE0=Море
TTITLE1=Покуда тонет Венера
TTITLE2=Расговоры с Гейне
TTITLE3=Небесный брак
TTITLE4=Травка зеленеет
TTITLE5=Арктика
TTITLE6=Эдемская элегия
TTITLE7=Мулен-Руж
TTITLE8=Линии и огни
TTITLE9=Стансы
TTITLE10=Покуда тонет Венера
TTITLE11=Арктика
TTITLE12=Небесный брак
TTITLE13=Всё во всём
TTITLE14=Линии и огни
EXTD=
EXTT0=
EXTT1=
EXTT2=
EXTT3=
EXTT4=
EXTT5=
EXTT6=
EXTT7=
EXTT8=
EXTT9=
EXTT10=
EXTT11=
EXTT12=
EXTT13=
EXTT14=
PLAYORDER=
